PathFileType	4	(X/Y/Z)	Patient4_TMGait_0pt4_03_right_12.trc.trc
DataRate	CameraRate	NumFrames	NumMarkers	Units	OrigDataRate	OrigDataStartFrame	OrigNumFrames
72.538860103627	72.538860103627	4	33	mm	72.538860103627	18	       141
Frame#	Time	Sacral			L.Shoulder			Chest			R.Shoulder			Neck			R.ASIS			L.ASIS			R.Thigh.Superior			R.Thigh.Lateral			R.Thigh.Inferior			R.Patella			L.Thigh.Superior			L.Thigh.Lateral			L.Thigh.Inferior			L.Patella			L.Shank.Superior			L.Shank.Lateral			L.Shank.Inferior			R.Shank.Superior			R.Shank.Lateral			R.Shank.Inferior			R.Heel			R.Midfoot.Superior			R.Midfoot.Lateral			R.Toe			L.Heel			L.Midfoot.Lateral			L.Midfoot.Superior			L.Toe			L.Elbow			L.Wrist			R.Elbow			R.Wrist			
		X1	Y1	Z1	X2	Y2	Z2	X3	Y3	Z3	X4	Y4	Z4	X5	Y5	Z5	X6	Y6	Z6	X7	Y7	Z7	X8	Y8	Z8	X9	Y9	Z9	X10	Y10	Z10	X11	Y11	Z11	X12	Y12	Z12	X13	Y13	Z13	X14	Y14	Z14	X15	Y15	Z15	X16	Y16	Z16	X17	Y17	Z17	X18	Y18	Z18	X19	Y19	Z19	X20	Y20	Z20	X21	Y21	Z21	X22	Y22	Z22	X23	Y23	Z23	X24	Y24	Z24	X25	Y25	Z25	X26	Y26	Z26	X27	Y27	Z27	X28	Y28	Z28	X29	Y29	Z29	X30	Y30	Z30	X31	Y31	Z31	X32	Y32	Z32	X33	Y33	Z33	

18	14.964357142857	796.223084357196	1012.909325910385	409.186558048516	1012.452221555613	1430.526753505942	232.063430077500	1093.111728490715	1362.535442220354	405.304512730051	994.260935268711	1442.368312321937	567.801519619149	975.628828980707	1497.178636149518	386.078504068118	1012.862244106714	946.643456064212	548.362730246429	1022.111209222233	961.330881133302	272.092499071468	1071.910737634445	761.037425023445	530.448037405043	1017.846527401395	648.360922056749	606.439983616082	1104.108172004086	598.764102406674	529.681362784879	1130.922673393923	520.248765624362	550.892041277269	1036.800277321503	739.266676884675	302.657160346847	930.918101033887	637.271718595920	235.445344786561	997.763068076987	549.175510612096	300.816992816901	986.897646270189	483.776394357478	309.855078940178	959.151459482023	414.974066970262	301.782520530908	865.089536827801	303.939439259567	251.070649961021	910.323130544127	191.548594572602	324.868060460457	1116.518458865148	437.470389493818	565.361207341864	1065.926952128530	324.893509089744	632.544022986317	1140.708415222391	239.509920074337	586.086164510519	1057.280002813723	49.236041692657	561.556885938727	1218.138646211393	124.016466682828	600.693992706418	1141.905998879090	47.270827151322	635.218858010363	1344.464607254096	90.343099332768	628.027746030189	778.683658423192	38.839826022116	371.875616010181	850.822057613032	34.469597039302	289.607266356309	935.190853194746	95.627021586765	315.586014892713	1063.566489277802	41.003561195768	285.089744994316	1069.710992669168	1098.869721503910	86.152164985758	1314.232646905649	1007.596347842544	101.599523728180	871.619271391393	1114.452864793893	673.731013116819	876.867986815253	852.727683299408	681.608476629981	
19	14.978142857143	797.504188356333	1011.831769366573	410.812928402601	1012.179767698979	1429.673738348025	233.504183737795	1093.393804572019	1361.976403900105	406.601704734726	994.763244892132	1441.718072730031	569.284778374969	975.631236053656	1496.374650259807	387.484840964213	1014.408861588868	945.095940109272	549.411725340494	1023.155452341619	961.158812548694	273.125791963810	1071.203858494745	757.715875984875	531.223710756349	1015.354880252989	645.403807953860	606.534488624857	1101.185404304242	595.316943905079	529.586032455583	1127.357371214255	517.976479069119	550.002511275149	1036.156993439959	738.338991923582	303.043271966809	928.688188471529	637.289373510415	236.013415727070	994.687771080073	548.475724933955	300.962872270868	983.357116143479	483.172815067482	309.771452103861	955.125603785137	414.689716337787	301.797131910849	860.238245140698	304.220618179200	251.125404950984	905.162699446486	191.420269076413	324.666132090144	1114.530471854191	435.453355562406	564.436521184015	1065.944462257587	321.661556717912	631.135414373960	1142.449787002523	237.840408635713	584.340833127857	1062.462044449226	46.617864470178	559.260040369578	1222.516140965568	123.063739397439	598.365300930558	1147.068164151991	45.675082491257	632.827166703966	1349.170920384261	90.546314876508	625.379502209425	773.127442770003	38.908581068332	371.819893708975	845.252355229220	34.472043099202	289.572927901059	929.647877633134	95.580110640906	315.486799163759	1057.985881298611	40.915080855641	285.061039503097	1070.581613519598	1097.638095267895	88.838259744213	1316.152883251941	1010.047553312307	105.624575459463	869.887986774077	1114.956567550189	674.956943942244	873.630778883278	853.081807080969	681.664751560150	
20	14.991928571429	798.892412168269	1010.630286153838	412.724344229461	1011.694735241713	1428.777281386183	235.106020762010	1093.603702787205	1361.483798122650	408.036832691502	995.185267391608	1441.049342365417	570.958058424983	975.498155677641	1495.533837884367	389.074720822255	1016.221389291922	943.558372655035	550.630163478825	1024.281338590733	960.950134280014	274.354834861553	1071.462894786740	754.777455718095	531.989365651159	1013.886690675502	642.574370893567	606.428489495377	1099.426979556613	592.276727385993	529.376529388515	1124.880615875881	515.630515185764	549.008273583286	1035.658837375149	737.408128038840	303.600930610151	926.681940175503	637.281936990796	236.760144764161	991.902646693474	547.764999785544	301.249592381681	980.145468999661	482.500078228257	309.823816241167	951.353457359524	414.361925469240	301.926138407157	855.541872673345	304.546813183571	251.303022011869	900.092630026267	191.279997819262	324.519672152577	1112.796246992637	433.074667907030	563.237556720308	1065.012636646061	318.680514882368	629.345388892538	1142.149638126127	235.698956002831	582.208583014737	1063.432506564577	44.839056849387	556.729736120067	1223.391023199988	121.247904537360	595.649514988302	1147.959469070285	44.224792797529	630.214843913147	1349.923423780719	88.571173432603	622.339992935945	767.567982973055	38.991498832506	371.758511905181	839.686278044527	34.490037973446	289.542776124510	924.102634613422	95.546735986001	315.393257935336	1052.400227658416	40.828984822954	285.031676263311	1071.058971457511	1096.285753752370	91.672221563992	1317.372244075392	1011.485048361017	109.664809383526	868.946452241996	1115.174896658691	676.621915997687	872.051683982893	853.147228605567	682.171891754681	
21	15.005714285714	800.360632934349	1009.337181763157	414.903081989443	1011.045771984316	1427.854492045356	236.876202089228	1093.758429613449	1361.059232204334	409.624295117229	995.530000997337	1440.369345004427	572.823756365164	975.256483943511	1494.672067730012	390.854057420844	1018.271924813698	942.065827111251	552.014661648233	1025.457249807886	960.695832613631	275.771737491710	1072.678717652830	752.233842607589	532.774451456182	1013.405872421087	639.920135977919	606.166722695022	1098.810041286606	589.675177064723	529.100152154501	1123.481548257540	513.270925238861	547.918087472183	1035.306696592437	736.480518027937	304.304508077132	924.910694989088	637.247413070436	237.684907232490	989.440079458808	547.041952686391	301.662458077717	977.303517187360	481.752826291268	310.011948110432	947.869389618244	413.981721176467	302.173878031121	851.030026062686	304.919129354757	251.614730250085	895.126104834898	191.125332303347	324.433327865093	1111.419866373560	430.401983342781	561.809561153753	1063.388776919859	315.919474353289	627.300030427918	1140.170465033698	233.082331493380	579.782715286444	1060.736094883259	43.673896094765	554.126188092090	1221.255822622297	118.610090516739	592.656543276525	1145.171056540258	42.834413902431	627.542042926697	1347.331031462195	84.660112628564	619.040010716627	762.009145248143	39.099494584000	371.689636236294	834.129023683711	34.529339549194	289.519000470153	918.561966687354	95.531615322962	315.305912791550	1046.814723010163	40.740334822078	284.999587460007	1071.114623430547	1094.818201718686	94.644922997847	1317.903897075226	1011.894494559679	113.663472076027	868.787948103369	1115.090440634264	678.719919553399	872.126033179851	852.911360208545	683.177043423869	
